<svg id="visual" viewBox="0 0 900 600" width="900" height="600" xmlns="http://www.w3.org/2000/svg" xmlns:xlink="http://www.w3.org/1999/xlink" version="1.1"><g stroke-width="1" stroke-linejoin="bevel"><path d="M467 335.9L381 404.6L451 417.6Z" fill="#4d83f4" stroke="#4d83f4"></path><path d="M467 335.9L338 364.9L381 404.6Z" fill="#6093f7" stroke="#6093f7"></path><path d="M467 335.9L363 254.1L338 364.9Z" fill="#f6faff" stroke="#f6faff"></path><path d="M447 242.1L363 254.1L467 335.9Z" fill="#9cc0fd" stroke="#9cc0fd"></path><path d="M451 417.6L553 347.9L467 335.9Z" fill="#73a2fa" stroke="#73a2fa"></path><path d="M467 335.9L516 246.1L447 242.1Z" fill="#f6faff" stroke="#f6faff"></path><path d="M451 417.6L560 433.6L553 347.9Z" fill="#c7defe" stroke="#c7defe"></path><path d="M553 347.9L516 246.1L467 335.9Z" fill="#deecff" stroke="#deecff"></path><path d="M336 516.3L439 528.3L381 404.6Z" fill="#4d83f4" stroke="#4d83f4"></path><path d="M381 404.6L439 528.3L451 417.6Z" fill="#87b1fc" stroke="#87b1fc"></path><path d="M451 417.6L532 533.3L560 433.6Z" fill="#3a73f0" stroke="#3a73f0"></path><path d="M256 436.6L336 516.3L381 404.6Z" fill="#6093f7" stroke="#6093f7"></path><path d="M363 254.1L280 274.1L338 364.9Z" fill="#c7defe" stroke="#c7defe"></path><path d="M338 364.9L256 436.6L381 404.6Z" fill="#3a73f0" stroke="#3a73f0"></path><path d="M248 319.9L256 436.6L338 364.9Z" fill="#2563eb" stroke="#2563eb"></path><path d="M280 274.1L248 319.9L338 364.9Z" fill="#b1cffe" stroke="#b1cffe"></path><path d="M447 242.1L358 189.4L363 254.1Z" fill="#b1cffe" stroke="#b1cffe"></path><path d="M363 254.1L358 189.4L280 274.1Z" fill="#73a2fa" stroke="#73a2fa"></path><path d="M473 168.4L358 189.4L447 242.1Z" fill="#73a2fa" stroke="#73a2fa"></path><path d="M439 528.3L532 533.3L451 417.6Z" fill="#87b1fc" stroke="#87b1fc"></path><path d="M516 246.1L473 168.4L447 242.1Z" fill="#deecff" stroke="#deecff"></path><path d="M560 433.6L639 361.9L553 347.9Z" fill="#f6faff" stroke="#f6faff"></path><path d="M553 347.9L627 268.1L516 246.1Z" fill="#c7defe" stroke="#c7defe"></path><path d="M516 246.1L542 156.4L473 168.4Z" fill="#3a73f0" stroke="#3a73f0"></path><path d="M639 428.6L639 361.9L560 433.6Z" fill="#3a73f0" stroke="#3a73f0"></path><path d="M608 531.3L639 428.6L560 433.6Z" fill="#f6faff" stroke="#f6faff"></path><path d="M248 319.9L203 413.6L256 436.6Z" fill="#6093f7" stroke="#6093f7"></path><path d="M256 436.6L250 513.3L336 516.3Z" fill="#73a2fa" stroke="#73a2fa"></path><path d="M203 413.6L250 513.3L256 436.6Z" fill="#4d83f4" stroke="#4d83f4"></path><path d="M372 600L462 600L439 528.3Z" fill="#87b1fc" stroke="#87b1fc"></path><path d="M639 361.9L627 268.1L553 347.9Z" fill="#4d83f4" stroke="#4d83f4"></path><path d="M372 600L439 528.3L336 516.3Z" fill="#87b1fc" stroke="#87b1fc"></path><path d="M439 528.3L462 600L532 533.3Z" fill="#2563eb" stroke="#2563eb"></path><path d="M287 600L372 600L336 516.3Z" fill="#b1cffe" stroke="#b1cffe"></path><path d="M187 254.1L186 327.9L248 319.9Z" fill="#f6faff" stroke="#f6faff"></path><path d="M248 319.9L186 327.9L203 413.6Z" fill="#f6faff" stroke="#f6faff"></path><path d="M187 254.1L248 319.9L280 274.1Z" fill="#c7defe" stroke="#c7defe"></path><path d="M629 183.4L542 156.4L516 246.1Z" fill="#87b1fc" stroke="#87b1fc"></path><path d="M518 600L608 531.3L532 533.3Z" fill="#9cc0fd" stroke="#9cc0fd"></path><path d="M532 533.3L608 531.3L560 433.6Z" fill="#9cc0fd" stroke="#9cc0fd"></path><path d="M462 600L518 600L532 533.3Z" fill="#73a2fa" stroke="#73a2fa"></path><path d="M364 99.7L261 173.4L358 189.4Z" fill="#4d83f4" stroke="#4d83f4"></path><path d="M358 189.4L261 173.4L280 274.1Z" fill="#4d83f4" stroke="#4d83f4"></path><path d="M364 99.7L358 189.4L473 168.4Z" fill="#73a2fa" stroke="#73a2fa"></path><path d="M261 173.4L187 254.1L280 274.1Z" fill="#2563eb" stroke="#2563eb"></path><path d="M181 600L287 600L250 513.3Z" fill="#73a2fa" stroke="#73a2fa"></path><path d="M250 513.3L287 600L336 516.3Z" fill="#73a2fa" stroke="#73a2fa"></path><path d="M450 91.7L364 99.7L473 168.4Z" fill="#f6faff" stroke="#f6faff"></path><path d="M627 268.1L629 183.4L516 246.1Z" fill="#73a2fa" stroke="#73a2fa"></path><path d="M530 97.7L450 91.7L473 168.4Z" fill="#3a73f0" stroke="#3a73f0"></path><path d="M701 266.1L629 183.4L627 268.1Z" fill="#87b1fc" stroke="#87b1fc"></path><path d="M701 518.3L697 426.6L639 428.6Z" fill="#4d83f4" stroke="#4d83f4"></path><path d="M639 428.6L697 426.6L639 361.9Z" fill="#b1cffe" stroke="#b1cffe"></path><path d="M639 361.9L701 266.1L627 268.1Z" fill="#87b1fc" stroke="#87b1fc"></path><path d="M530 97.7L473 168.4L542 156.4Z" fill="#6093f7" stroke="#6093f7"></path><path d="M624 74.7L530 97.7L542 156.4Z" fill="#3a73f0" stroke="#3a73f0"></path><path d="M203 413.6L180 534.3L250 513.3Z" fill="#b1cffe" stroke="#b1cffe"></path><path d="M97 432.6L180 534.3L203 413.6Z" fill="#f6faff" stroke="#f6faff"></path><path d="M97 432.6L203 413.6L186 327.9Z" fill="#f6faff" stroke="#f6faff"></path><path d="M730 334.9L701 266.1L639 361.9Z" fill="#9cc0fd" stroke="#9cc0fd"></path><path d="M697 426.6L730 334.9L639 361.9Z" fill="#6093f7" stroke="#6093f7"></path><path d="M608 531.3L701 518.3L639 428.6Z" fill="#f6faff" stroke="#f6faff"></path><path d="M697 426.6L792 444.6L730 334.9Z" fill="#3a73f0" stroke="#3a73f0"></path><path d="M642 600L701 518.3L608 531.3Z" fill="#b1cffe" stroke="#b1cffe"></path><path d="M518 600L642 600L608 531.3Z" fill="#c7defe" stroke="#c7defe"></path><path d="M190 102.7L176 155.4L261 173.4Z" fill="#6093f7" stroke="#6093f7"></path><path d="M261 173.4L176 155.4L187 254.1Z" fill="#73a2fa" stroke="#73a2fa"></path><path d="M92 327.9L97 432.6L186 327.9Z" fill="#73a2fa" stroke="#73a2fa"></path><path d="M364 99.7L285 70.7L261 173.4Z" fill="#3a73f0" stroke="#3a73f0"></path><path d="M342 0L285 70.7L364 99.7Z" fill="#87b1fc" stroke="#87b1fc"></path><path d="M434 0L364 99.7L450 91.7Z" fill="#87b1fc" stroke="#87b1fc"></path><path d="M92 327.9L186 327.9L187 254.1Z" fill="#3a73f0" stroke="#3a73f0"></path><path d="M72 260.1L92 327.9L187 254.1Z" fill="#3a73f0" stroke="#3a73f0"></path><path d="M101 600L181 600L180 534.3Z" fill="#73a2fa" stroke="#73a2fa"></path><path d="M180 534.3L181 600L250 513.3Z" fill="#4d83f4" stroke="#4d83f4"></path><path d="M285 70.7L190 102.7L261 173.4Z" fill="#87b1fc" stroke="#87b1fc"></path><path d="M106 158.4L72 260.1L187 254.1Z" fill="#b1cffe" stroke="#b1cffe"></path><path d="M629 183.4L624 74.7L542 156.4Z" fill="#6093f7" stroke="#6093f7"></path><path d="M540 0L434 0L450 91.7Z" fill="#4d83f4" stroke="#4d83f4"></path><path d="M741 169.4L624 74.7L629 183.4Z" fill="#9cc0fd" stroke="#9cc0fd"></path><path d="M741 169.4L629 183.4L701 266.1Z" fill="#b1cffe" stroke="#b1cffe"></path><path d="M106 158.4L187 254.1L176 155.4Z" fill="#2563eb" stroke="#2563eb"></path><path d="M92 327.9L0 404.6L97 432.6Z" fill="#deecff" stroke="#deecff"></path><path d="M540 0L450 91.7L530 97.7Z" fill="#f6faff" stroke="#f6faff"></path><path d="M285 70.7L194 0L190 102.7Z" fill="#4d83f4" stroke="#4d83f4"></path><path d="M0 497.3L81 522.3L97 432.6Z" fill="#c7defe" stroke="#c7defe"></path><path d="M97 432.6L81 522.3L180 534.3Z" fill="#c7defe" stroke="#c7defe"></path><path d="M814 243.1L741 169.4L701 266.1Z" fill="#73a2fa" stroke="#73a2fa"></path><path d="M786 509.3L792 444.6L701 518.3Z" fill="#f6faff" stroke="#f6faff"></path><path d="M701 518.3L792 444.6L697 426.6Z" fill="#b1cffe" stroke="#b1cffe"></path><path d="M730 334.9L814 243.1L701 266.1Z" fill="#b1cffe" stroke="#b1cffe"></path><path d="M434 0L342 0L364 99.7Z" fill="#9cc0fd" stroke="#9cc0fd"></path><path d="M190 102.7L106 158.4L176 155.4Z" fill="#f6faff" stroke="#f6faff"></path><path d="M83 91.7L106 158.4L190 102.7Z" fill="#73a2fa" stroke="#73a2fa"></path><path d="M642 600L735 600L701 518.3Z" fill="#87b1fc" stroke="#87b1fc"></path><path d="M626 0L540 0L624 74.7Z" fill="#3a73f0" stroke="#3a73f0"></path><path d="M624 74.7L540 0L530 97.7Z" fill="#87b1fc" stroke="#87b1fc"></path><path d="M735 600L786 509.3L701 518.3Z" fill="#9cc0fd" stroke="#9cc0fd"></path><path d="M792 444.6L818 332.9L730 334.9Z" fill="#3a73f0" stroke="#3a73f0"></path><path d="M900 323.9L818 332.9L900 445.6Z" fill="#3a73f0" stroke="#3a73f0"></path><path d="M81 522.3L101 600L180 534.3Z" fill="#2563eb" stroke="#2563eb"></path><path d="M342 0L265 0L285 70.7Z" fill="#9cc0fd" stroke="#9cc0fd"></path><path d="M818 332.9L814 243.1L730 334.9Z" fill="#6093f7" stroke="#6093f7"></path><path d="M713 0L626 0L624 74.7Z" fill="#4d83f4" stroke="#4d83f4"></path><path d="M732 63.7L624 74.7L741 169.4Z" fill="#9cc0fd" stroke="#9cc0fd"></path><path d="M0 257.1L0 337.9L72 260.1Z" fill="#6093f7" stroke="#6093f7"></path><path d="M72 260.1L0 337.9L92 327.9Z" fill="#73a2fa" stroke="#73a2fa"></path><path d="M81 522.3L0 600L101 600Z" fill="#3a73f0" stroke="#3a73f0"></path><path d="M0 337.9L0 404.6L92 327.9Z" fill="#deecff" stroke="#deecff"></path><path d="M814 243.1L808 187.4L741 169.4Z" fill="#f6faff" stroke="#f6faff"></path><path d="M828 90.7L732 63.7L741 169.4Z" fill="#2563eb" stroke="#2563eb"></path><path d="M265 0L194 0L285 70.7Z" fill="#73a2fa" stroke="#73a2fa"></path><path d="M0 148.4L0 257.1L72 260.1Z" fill="#b1cffe" stroke="#b1cffe"></path><path d="M0 148.4L72 260.1L106 158.4Z" fill="#deecff" stroke="#deecff"></path><path d="M94 0L83 91.7L190 102.7Z" fill="#4d83f4" stroke="#4d83f4"></path><path d="M0 404.6L0 497.3L97 432.6Z" fill="#c7defe" stroke="#c7defe"></path><path d="M735 600L832 600L786 509.3Z" fill="#9cc0fd" stroke="#9cc0fd"></path><path d="M900 511.3L900 445.6L792 444.6Z" fill="#deecff" stroke="#deecff"></path><path d="M818 332.9L900 255.1L814 243.1Z" fill="#c7defe" stroke="#c7defe"></path><path d="M806 0L713 0L732 63.7Z" fill="#87b1fc" stroke="#87b1fc"></path><path d="M732 63.7L713 0L624 74.7Z" fill="#9cc0fd" stroke="#9cc0fd"></path><path d="M83 91.7L0 148.4L106 158.4Z" fill="#6093f7" stroke="#6093f7"></path><path d="M0 78.7L0 148.4L83 91.7Z" fill="#73a2fa" stroke="#73a2fa"></path><path d="M814 243.1L900 171.4L808 187.4Z" fill="#deecff" stroke="#deecff"></path><path d="M808 187.4L828 90.7L741 169.4Z" fill="#b1cffe" stroke="#b1cffe"></path><path d="M900 445.6L818 332.9L792 444.6Z" fill="#b1cffe" stroke="#b1cffe"></path><path d="M0 497.3L0 600L81 522.3Z" fill="#b1cffe" stroke="#b1cffe"></path><path d="M900 511.3L792 444.6L786 509.3Z" fill="#3a73f0" stroke="#3a73f0"></path><path d="M900 323.9L900 255.1L818 332.9Z" fill="#deecff" stroke="#deecff"></path><path d="M900 171.4L828 90.7L808 187.4Z" fill="#87b1fc" stroke="#87b1fc"></path><path d="M194 0L94 0L190 102.7Z" fill="#3a73f0" stroke="#3a73f0"></path><path d="M832 600L900 511.3L786 509.3Z" fill="#4d83f4" stroke="#4d83f4"></path><path d="M94 0L0 78.7L83 91.7Z" fill="#b1cffe" stroke="#b1cffe"></path><path d="M900 255.1L900 171.4L814 243.1Z" fill="#c7defe" stroke="#c7defe"></path><path d="M832 600L900 600L900 511.3Z" fill="#c7defe" stroke="#c7defe"></path><path d="M900 0L806 0L828 90.7Z" fill="#6093f7" stroke="#6093f7"></path><path d="M828 90.7L806 0L732 63.7Z" fill="#f6faff" stroke="#f6faff"></path><path d="M900 171.4L900 106.7L828 90.7Z" fill="#b1cffe" stroke="#b1cffe"></path><path d="M94 0L0 0L0 78.7Z" fill="#2563eb" stroke="#2563eb"></path><path d="M900 106.7L900 0L828 90.7Z" fill="#73a2fa" stroke="#73a2fa"></path></g></svg>